<svg width="675" height="535" xmlns="http://www.w3.org/2000/svg" xmlns:xlink="http://www.w3.org/1999/xlink" overflow="hidden"><defs><clipPath id="clip0"><rect x="86" y="217" width="675" height="535"/></clipPath></defs><g clip-path="url(#clip0)" transform="translate(-86 -217)"><path d="M87 306.835C87 257.773 126.773 218 175.835 218L671.165 218C720.227 218 760 257.773 760 306.835L760 662.165C760 711.227 720.227 751 671.165 751L175.835 751C126.773 751 87 711.227 87 662.165Z" stroke="#FF0000" stroke-width="1.66667" stroke-miterlimit="8" fill="#E2F0D9" fill-rule="evenodd"/><rect x="273.5" y="250.5" width="212" height="463" stroke="#000000" stroke-width="2.91667" stroke-miterlimit="8" stroke-dasharray="8.75 2.91667" fill="#FFFFFF"/><rect x="107.5" y="270.5" width="117" height="443" stroke="#000000" stroke-width="2.91667" stroke-miterlimit="8" stroke-dasharray="8.75 2.91667" fill="#FFFFFF"/><rect x="631.5" y="281.5" width="116" height="369" stroke="#000000" stroke-width="2.91667" stroke-miterlimit="8" stroke-dasharray="8.75 2.91667" fill="#FFFFFF"/><path d="M385.167 613.479 385.209 616.812 381.876 616.854 381.833 613.521ZM385.251 620.145 385.293 623.478 381.96 623.52 381.918 620.187ZM385.335 626.811 385.378 630.144 382.045 630.186 382.002 626.853ZM385.42 633.477 385.462 636.81 382.129 636.853 382.087 633.52ZM385.504 640.143 385.546 643.477 382.213 643.519 382.171 640.186ZM385.589 646.81 385.631 650.143 382.298 650.185 382.256 646.852ZM385.673 653.476 385.715 656.809 382.382 656.851 382.34 653.518ZM385.758 660.142 385.8 663.475 382.467 663.517 382.424 660.184ZM385.842 666.808 385.884 670.141 382.551 670.183 382.509 666.85ZM385.926 673.474 385.969 676.807 382.635 676.849 382.593 673.516ZM386.011 680.14 386.053 683.473 382.72 683.516 382.678 680.182ZM386.095 686.806 386.106 687.671 382.773 687.713 382.762 686.849ZM389.418 685.962 384.545 696.024 379.419 686.088Z" fill="#FF0000"/><path d="M1.66667-2.70401e-06 1.66667 3.33333-1.66666 3.33334-1.66667 2.70401e-06ZM1.66668 6.66666 1.66668 10-1.66665 10-1.66666 6.66667ZM1.66669 13.3333 1.66669 16.6667-1.66664 16.6667-1.66665 13.3333ZM1.6667 20 1.6667 23.3333-1.66663 23.3333-1.66663 20ZM1.66671 26.6667 1.66672 30-1.66662 30-1.66662 26.6667ZM1.66672 33.3333 1.66673 36.6667-1.66661 36.6667-1.66661 33.3333ZM1.66673 40 1.66674 43.3333-1.6666 43.3333-1.6666 40ZM1.66674 46.6667 1.66675 50-1.66659 50-1.66659 46.6667ZM1.66675 53.3333 1.66676 56.6667-1.66657 56.6667-1.66658 53.3333ZM1.66676 60 1.66677 63.3333-1.66656 63.3333-1.66657 60ZM1.66677 66.6667 1.66678 70-1.66655 70-1.66656 66.6667ZM5.00011 70.8883 0.000131234 80.8883-4.99989 70.8883Z" fill="#FF0000" transform="matrix(-1 0 0 1 380.5 262.5)"/><path d="M1.66667-2.70401e-06 1.66667 3.33333-1.66666 3.33334-1.66667 2.70401e-06ZM1.66668 6.66666 1.66668 10-1.66665 10-1.66666 6.66667ZM1.66669 13.3333 1.66669 16.6667-1.66664 16.6667-1.66665 13.3333ZM1.6667 20 1.6667 23.3333-1.66663 23.3333-1.66663 20ZM1.66671 26.6667 1.66672 30-1.66662 30-1.66662 26.6667ZM1.66672 33.3333 1.66673 36.6667-1.66661 36.6667-1.66661 33.3333ZM1.66673 40 1.66674 43.3333-1.6666 43.3333-1.6666 40ZM1.66674 46.6667 1.66675 50-1.66659 50-1.66659 46.6667ZM1.66675 53.3333 1.66676 56.6667-1.66657 56.6667-1.66658 53.3333ZM1.66676 60 1.66677 63.3333-1.66656 63.3333-1.66657 60ZM1.66677 66.6667 1.66678 70-1.66655 70-1.66656 66.6667ZM5.00011 70.8883 0.000131234 80.8883-4.99989 70.8883Z" fill="#FF0000" transform="matrix(-1 0 0 1 316.5 261.5)"/><path d="M315.167 613.5 315.167 616.833 311.833 616.833 311.833 613.5ZM315.167 620.167 315.167 623.5 311.833 623.5 311.833 620.167ZM315.167 626.833 315.167 630.167 311.833 630.167 311.833 626.833ZM315.167 633.5 315.167 636.833 311.833 636.833 311.833 633.5ZM315.167 640.167 315.167 643.5 311.833 643.5 311.833 640.167ZM315.167 646.833 315.167 650.167 311.833 650.167 311.833 646.833ZM315.167 653.5 315.167 656.833 311.833 656.833 311.833 653.5ZM315.167 660.167 315.167 663.5 311.833 663.5 311.833 660.167ZM315.167 666.833 315.167 670.167 311.833 670.167 311.833 666.833ZM315.167 673.5 315.167 676.833 311.833 676.833 311.833 673.5ZM315.167 680.167 315.167 683.5 311.833 683.5 311.833 680.167ZM315.167 686.833 315.167 690.167 311.833 690.167 311.833 686.833ZM318.5 688.51 313.5 698.51 308.5 688.51Z" fill="#FF0000"/><path d="M445.747 517.5 349.5 517.5" stroke="#595959" stroke-width="3.33333" stroke-linecap="round" stroke-linejoin="round" stroke-miterlimit="10" fill="none" fill-rule="evenodd"/><path d="M329.833 369.833 347.1 369.833C348.02 369.833 348.766 370.58 348.766 371.5 348.766 372.421 348.02 373.167 347.1 373.167L329.833 373.167C328.913 373.167 328.167 372.421 328.167 371.5 328.167 370.58 328.913 369.833 329.833 369.833ZM331.5 376.5 321.5 371.5 331.5 366.5Z"/><path d="M0 0 0.000131234 44.6067" stroke="#000000" stroke-width="3.33333" stroke-linecap="round" stroke-miterlimit="8" fill="none" fill-rule="evenodd" transform="matrix(1 0 0 -1 321.5 410.107)"/><path d="M321.5 403.5 347.1 403.5" stroke="#000000" stroke-width="3.33333" stroke-linecap="round" stroke-miterlimit="8" fill="none" fill-rule="evenodd"/><path d="M0 0 0.000131234 31.8619" stroke="#000000" stroke-width="6.66667" stroke-linecap="square" stroke-miterlimit="8" fill="none" fill-rule="evenodd" transform="matrix(1 0 0 -1 310.5 403.362)"/><path d="M321.5 555.5 347.1 555.5" stroke="#000000" stroke-width="3.33333" stroke-linecap="round" stroke-miterlimit="8" fill="none" fill-rule="evenodd"/><path d="M0 0 0.000131234 44.6067" stroke="#000000" stroke-width="3.33333" stroke-linecap="round" stroke-miterlimit="8" fill="none" fill-rule="evenodd" transform="matrix(1 0 0 -1 321.5 593.107)"/><path d="M321.5 584.833 344.846 584.833C345.766 584.833 346.512 585.58 346.512 586.5 346.512 587.421 345.766 588.167 344.846 588.167L321.5 588.167C320.58 588.167 319.833 587.42 319.833 586.5 319.833 585.58 320.58 584.833 321.5 584.833ZM343.179 581.5 353.179 586.5 343.179 591.5Z"/><path d="M0 0 0.000131234 31.8619" stroke="#000000" stroke-width="6.66667" stroke-linecap="square" stroke-miterlimit="8" fill="none" fill-rule="evenodd" transform="matrix(1 0 0 -1 310.5 587.362)"/><path d="M0 0 0.000131234 151.199" stroke="#000000" stroke-width="3.33333" stroke-linecap="round" stroke-miterlimit="8" fill="none" fill-rule="evenodd" transform="matrix(-1 0 0 1 348.5 403.5)"/><path d="M347.5 340.5 347.737 372.179" stroke="#000000" stroke-width="3.33333" stroke-linecap="round" stroke-linejoin="round" stroke-miterlimit="10" fill="none" fill-rule="evenodd"/><path d="M0 0 0.000131234 31.6789" stroke="#000000" stroke-width="3.33333" stroke-linecap="round" stroke-miterlimit="8" fill="none" fill-rule="evenodd" transform="matrix(1 0 0 -1 351.5 620.179)"/><path d="M0 0 27.9835 0.0469816" stroke="#000000" stroke-width="3.33333" stroke-linecap="round" stroke-miterlimit="8" fill="none" fill-rule="evenodd" transform="matrix(1 0 0 -1 282.5 568.547)"/><path d="M386.477 445.5 349.5 445.5" stroke="#000000" stroke-width="3.33333" stroke-linecap="round" stroke-linejoin="round" stroke-miterlimit="10" fill="none" fill-rule="evenodd"/><text font-family="Arial,Arial_MSFontService,Arial" font-weight="700" font-size="20" transform="translate(329.525 393)">M<tspan font-size="13" x="16.6667" y="4">P</tspan><tspan font-size="20" x="-1.60117" y="181">M</tspan><tspan font-size="13" x="15.0655" y="185">N</tspan></text><path d="M0 0 44.521 0.000131234" stroke="#000000" stroke-width="3.33333" stroke-linecap="round" stroke-miterlimit="8" fill="none" fill-rule="evenodd" transform="matrix(-1 0 0 1 371.021 621.5)"/><path d="M308.833 280.833 326.1 280.833C327.02 280.833 327.766 281.58 327.766 282.5 327.766 283.421 327.02 284.167 326.1 284.167L308.833 284.167C307.913 284.167 307.167 283.421 307.167 282.5 307.167 281.58 307.913 280.833 308.833 280.833ZM310.5 287.5 300.5 282.5 310.5 277.5Z"/><path d="M0 0 0.000131234 44.6067" stroke="#000000" stroke-width="3.33333" stroke-linecap="round" stroke-miterlimit="8" fill="none" fill-rule="evenodd" transform="matrix(1 0 0 -1 300.5 321.107)"/><path d="M300.5 317.5 326.1 317.5" stroke="#000000" stroke-width="3.33333" stroke-linecap="round" stroke-miterlimit="8" fill="none" fill-rule="evenodd"/><path d="M0 0 0.000131234 31.8619" stroke="#000000" stroke-width="6.66667" stroke-linecap="square" stroke-miterlimit="8" fill="none" fill-rule="evenodd" transform="matrix(1 0 0 -1 288.5 314.362)"/><path d="M0 0 0.000131234 24.3588" stroke="#000000" stroke-width="3.33333" stroke-linecap="round" stroke-linejoin="round" stroke-miterlimit="10" fill="none" fill-rule="evenodd" transform="matrix(-1 0 0 1 326.5 257.5)"/><path d="M0 0 95.7142 0.000131234" stroke="#000000" stroke-width="3.33333" stroke-linecap="round" stroke-linejoin="round" stroke-miterlimit="10" fill="none" fill-rule="evenodd" transform="matrix(-1 0 0 1 288.214 299.5)"/><path d="M325.5 317.5 325.5 338.721" stroke="#000000" stroke-width="3.33333" stroke-linecap="round" stroke-linejoin="round" stroke-miterlimit="10" fill="none" fill-rule="evenodd"/><path d="M8.33334-1.66662 25.5996-1.66654C26.5201-1.66653 27.2663-0.920335 27.2663 0.000139778 27.2663 0.920614 26.5201 1.6668 25.5996 1.6668L8.33332 1.66671C7.41285 1.6667 6.66666 0.920509 6.66667 3.41759e-05 6.66667-0.92044 7.41287-1.66663 8.33334-1.66662ZM9.99997 5.00005 0 0 10-4.99995Z" transform="matrix(-1 0 0 1 395.1 283.5)"/><path d="M394.5 321.107 394.5 276.5" stroke="#000000" stroke-width="3.33333" stroke-linecap="round" stroke-miterlimit="8" fill="none" fill-rule="evenodd"/><path d="M0 0 25.5996 0.000131234" stroke="#000000" stroke-width="3.33333" stroke-linecap="round" stroke-miterlimit="8" fill="none" fill-rule="evenodd" transform="matrix(-1 0 0 1 395.1 317.5)"/><path d="M406.5 315.362 406.5 283.5" stroke="#000000" stroke-width="6.66667" stroke-linecap="square" stroke-miterlimit="8" fill="none" fill-rule="evenodd"/><path d="M368.5 257.5 368.6 282.552" stroke="#000000" stroke-width="3.33333" stroke-linecap="round" stroke-linejoin="round" stroke-miterlimit="10" fill="none" fill-rule="evenodd"/><path d="M0 0 274.834 0.000131234" stroke="#000000" stroke-width="3.33333" stroke-linecap="round" stroke-linejoin="round" stroke-miterlimit="10" fill="none" fill-rule="evenodd" transform="matrix(1 0 0 -1 406.5 298.5)"/><path d="M368.5 318.5 368.5 340.414" stroke="#000000" stroke-width="3.33333" stroke-linecap="round" stroke-linejoin="round" stroke-miterlimit="10" fill="none" fill-rule="evenodd"/><path d="M148.5 256.5 692.126 256.81" stroke="#000000" stroke-width="3.33333" stroke-linecap="round" stroke-miterlimit="8" fill="none" fill-rule="evenodd"/><path d="M0 0 42.1567 0.000131234" stroke="#000000" stroke-width="3.33333" stroke-linecap="round" stroke-miterlimit="8" fill="none" fill-rule="evenodd" transform="matrix(1 0 0 -1 325.5 339.5)"/><text font-family="Arial,Arial_MSFontService,Arial" font-weight="700" font-size="20" transform="translate(305.778 305)">M<tspan font-size="13" x="16.6667" y="4">11</tspan><tspan font-size="20" x="49.2919" y="0">M</tspan><tspan font-size="13" x="65.9585" y="4">12</tspan></text><path d="M300.5 646.5 326.1 646.5" stroke="#000000" stroke-width="3.33333" stroke-linecap="round" stroke-miterlimit="8" fill="none" fill-rule="evenodd"/><path d="M0 0 0.000131234 44.6067" stroke="#000000" stroke-width="3.33333" stroke-linecap="round" stroke-miterlimit="8" fill="none" fill-rule="evenodd" transform="matrix(1 0 0 -1 300.5 685.107)"/><path d="M300.5 677.833 323.846 677.833C324.766 677.833 325.512 678.58 325.512 679.5 325.512 680.421 324.766 681.167 323.846 681.167L300.5 681.167C299.58 681.167 298.833 680.42 298.833 679.5 298.833 678.58 299.58 677.833 300.5 677.833ZM322.179 674.5 332.179 679.5 322.179 684.5Z"/><path d="M0 0 0.000131234 31.8619" stroke="#000000" stroke-width="6.66667" stroke-linecap="square" stroke-miterlimit="8" fill="none" fill-rule="evenodd" transform="matrix(1 0 0 -1 289.5 678.362)"/><path d="M0 0 0.000131234 22.9316" stroke="#000000" stroke-width="3.33333" stroke-linecap="round" stroke-miterlimit="8" fill="none" fill-rule="evenodd" transform="matrix(1 0 0 -1 329.5 703.432)"/><path d="M196.5 659.5 288.227 659.5" stroke="#000000" stroke-width="3.33333" stroke-linecap="round" stroke-miterlimit="8" fill="none" fill-rule="evenodd"/><path d="M0 0 0.000131234 23.7591" stroke="#000000" stroke-width="3.33333" stroke-linecap="round" stroke-miterlimit="8" fill="none" fill-rule="evenodd" transform="matrix(1 0 0 -1 326.5 645.259)"/><text font-family="Arial,Arial_MSFontService,Arial" font-weight="700" font-size="20" transform="translate(303.272 668)">M<tspan font-size="13" x="16.6667" y="4">21</tspan></text><path d="M0 0 25.5996 0.000131234" stroke="#000000" stroke-width="3.33333" stroke-linecap="round" stroke-miterlimit="8" fill="none" fill-rule="evenodd" transform="matrix(-1 0 0 1 398.1 646.5)"/><path d="M397.5 684.107 397.5 639.5" stroke="#000000" stroke-width="3.33333" stroke-linecap="round" stroke-miterlimit="8" fill="none" fill-rule="evenodd"/><path d="M6.9044e-06-1.66667 23.3454-1.66657C24.2659-1.66657 25.0121-0.920371 25.0121 0.000103616 25.0121 0.920578 24.2659 1.66677 23.3454 1.66676L-6.9044e-06 1.66667C-0.920482 1.66666-1.66667 0.920468-1.66667-6.9044e-06-1.66666-0.920482-0.920468-1.66667 6.9044e-06-1.66667ZM21.6788-4.99991 31.6787 0.000131234 21.6787 5.00009Z" transform="matrix(-1 0 0 1 398.179 679.5)"/><path d="M408.5 678.362 408.5 646.5" stroke="#000000" stroke-width="6.66667" stroke-linecap="square" stroke-miterlimit="8" fill="none" fill-rule="evenodd"/><path d="M0 0 0.000131234 22.093" stroke="#000000" stroke-width="3.33333" stroke-linecap="round" stroke-miterlimit="8" fill="none" fill-rule="evenodd" transform="matrix(1 0 0 -1 368.5 702.593)"/><path d="M476.259 662.5 410.5 662.5" stroke="#000000" stroke-width="3.33333" stroke-linecap="round" stroke-miterlimit="8" fill="none" fill-rule="evenodd"/><path d="M0 0 0.000131234 88.4001" stroke="#000000" stroke-width="3.33333" stroke-linecap="round" stroke-miterlimit="8" fill="none" fill-rule="evenodd" transform="matrix(1 0 0 -1 625.5 661.9)"/><path d="M372.5 646.259 372.5 622.5" stroke="#000000" stroke-width="3.33333" stroke-linecap="round" stroke-miterlimit="8" fill="none" fill-rule="evenodd"/><path d="M0 0 551.791 0.000131234" stroke="#000000" stroke-width="3.33333" stroke-linecap="round" stroke-miterlimit="8" fill="none" fill-rule="evenodd" transform="matrix(-1 0 0 1 695.291 703.5)"/><path d="M0 0 0.000131234 15.8394" stroke="#000000" stroke-width="3.33333" stroke-linecap="round" stroke-miterlimit="8" fill="none" fill-rule="evenodd" transform="matrix(1 0 0 -1 462.5 720.339)"/><path d="M0 0 23.7592 0.0469816" stroke="#000000" stroke-width="5.83333" stroke-linecap="square" stroke-miterlimit="8" fill="none" fill-rule="evenodd" transform="matrix(1 0 0 -1 450 720.047)"/><path d="M0 0 15.8394 0.0469816" stroke="#000000" stroke-width="5.83333" stroke-linecap="square" stroke-miterlimit="8" fill="none" fill-rule="evenodd" transform="matrix(1 0 0 -1 455 730.047)"/><path d="M0 0 7.91969 0.0469816" stroke="#000000" stroke-width="5.83333" stroke-linecap="square" stroke-miterlimit="8" fill="none" fill-rule="evenodd" transform="matrix(1 0 0 -1 460 741.047)"/><path d="M346.5 622C346.5 619.515 348.515 617.5 351 617.5 353.485 617.5 355.5 619.515 355.5 622 355.5 624.485 353.485 626.5 351 626.5 348.515 626.5 346.5 624.485 346.5 622Z" stroke="#000000" stroke-width="3.33333" stroke-miterlimit="8" fill-rule="evenodd"/><path d="M457.5 704C457.5 701.515 459.515 699.5 462 699.5 464.485 699.5 466.5 701.515 466.5 704 466.5 706.485 464.485 708.5 462 708.5 459.515 708.5 457.5 706.485 457.5 704Z" stroke="#000000" stroke-width="3.33333" stroke-miterlimit="8" fill-rule="evenodd"/><path d="M0 0 27.9835 0.0469816" stroke="#000000" stroke-width="3.33333" stroke-linecap="round" stroke-miterlimit="8" fill="none" fill-rule="evenodd" transform="matrix(1 0 0 -1 281.5 387.547)"/><text font-family="Arial,Arial_MSFontService,Arial" font-weight="700" font-size="20" transform="translate(266.657 399)">v<tspan font-size="13" x="11.0417" y="4">NP</tspan><tspan font-size="20" x="-0.570343" y="153">v</tspan><tspan font-size="13" x="10.4713" y="157">NN</tspan><tspan font-size="20" x="87.8772" y="67">O</tspan><tspan font-size="13" x="103.502" y="71">1</tspan><tspan font-size="20" x="49.2147" y="128">O</tspan><tspan font-size="13" x="64.8397" y="132">2</tspan></text><path d="M0 0 0.000131234 165.897" stroke="#000000" stroke-width="3.33333" stroke-linecap="round" stroke-miterlimit="8" fill="none" fill-rule="evenodd" transform="matrix(1 0 0 -1 735.5 465.397)"/><path d="M344.5 445C344.5 442.515 346.515 440.5 349 440.5 351.485 440.5 353.5 442.515 353.5 445 353.5 447.485 351.485 449.5 349 449.5 346.515 449.5 344.5 447.485 344.5 445Z" stroke="#000000" stroke-width="3.33333" stroke-miterlimit="8" fill-rule="evenodd"/><path d="M344.5 517C344.5 514.515 346.515 512.5 349 512.5 351.485 512.5 353.5 514.515 353.5 517 353.5 519.485 351.485 521.5 349 521.5 346.515 521.5 344.5 519.485 344.5 517Z" stroke="#595959" stroke-width="3.33333" stroke-miterlimit="8" fill="#595959" fill-rule="evenodd"/><path d="M342.5 340C342.5 337.515 344.515 335.5 347 335.5 349.485 335.5 351.5 337.515 351.5 340 351.5 342.485 349.485 344.5 347 344.5 344.515 344.5 342.5 342.485 342.5 340Z" stroke="#000000" stroke-width="3.33333" stroke-miterlimit="8" fill-rule="evenodd"/><text font-family="Arial,Arial_MSFontService,Arial" font-weight="700" font-size="20" transform="matrix(-1.83697e-16 -1 1 -1.83697e-16 298.185 487)">Skewed<tspan font-size="20" x="13" y="24">Input</tspan></text><path d="M445.5 590.171 445.5 519.5" stroke="#595959" stroke-width="3.33333" stroke-linecap="round" stroke-miterlimit="8" fill="none" fill-rule="evenodd"/><path d="M458.67 590 433 590" stroke="#595959" stroke-width="5.83333" stroke-linecap="round" stroke-linejoin="round" stroke-miterlimit="10" fill="none" fill-rule="evenodd"/><path d="M433.628 607.189C434.594 602.271 440.691 598.872 447.248 599.596 452.662 600.194 456.85 603.463 457.432 607.543" stroke="#595959" stroke-width="5" stroke-miterlimit="8" fill="none" fill-rule="evenodd"/><path d="M0 0 0.000131234 103.946" stroke="#595959" stroke-width="3.33333" stroke-linecap="round" stroke-miterlimit="8" fill="none" fill-rule="evenodd" transform="matrix(1 0 0 -1 445.5 703.446)"/><text font-family="Arial,Arial_MSFontService,Arial" font-weight="700" font-size="20" transform="matrix(6.12323e-17 1 -1 6.12323e-17 466.19 570)">C<tspan font-size="13" x="14" y="4">P</tspan><tspan font-size="20" x="23" y="1.40834e-15">+C</tspan><tspan font-size="13" x="49" y="4">L</tspan></text><text font-family="Arial,Arial_MSFontService,Arial" font-weight="700" font-size="20" transform="translate(285.331 350)">I<tspan font-size="13" x="5.625" y="4">P_Fix</tspan><tspan font-size="20" x="98.0083" y="4">I</tspan><tspan font-size="13" x="103.633" y="8">P_Cont</tspan></text><path d="M336.167 407.5 336.167 492.268C336.167 493.189 335.421 493.935 334.5 493.935 333.58 493.935 332.833 493.189 332.833 492.268L332.833 407.5C332.833 406.58 333.58 405.833 334.5 405.833 335.42 405.833 336.167 406.58 336.167 407.5ZM339.5 490.602 334.5 500.602 329.5 490.602Z" fill="#002060"/><path d="M457.053 499.5 335.5 499.5" stroke="#002060" stroke-width="3.33333" stroke-linecap="round" stroke-linejoin="round" stroke-miterlimit="10" fill="none" fill-rule="evenodd"/><path d="M1.66668 8.33332 1.6668 79.5236C1.6668 80.4441 0.920609 81.1903 0.000133984 81.1903-0.920341 81.1903-1.66653 80.4441-1.66654 79.5236L-1.66665 8.33332C-1.66665 7.41285-0.920464 6.66665 1.10016e-05 6.66665 0.920486 6.66665 1.66668 7.41284 1.66668 8.33332ZM-4.99998 10 0 0 5.00002 9.99999Z" fill="#002060" transform="matrix(1 0 0 -1 457.5 582.024)"/><text font-family="Arial,Arial_MSFontService,Arial" font-weight="700" font-size="20" transform="translate(363.178 368)">v<tspan font-size="13" x="11.0417" y="4">X</tspan><tspan font-size="20" x="-38.3294" y="239">v</tspan><tspan font-size="13" x="-27.2877" y="243">Y</tspan></text><text font-family="Arial,Arial_MSFontService,Arial" font-weight="700" font-size="20" transform="matrix(-1.83697e-16 -1 1 -1.83697e-16 298.724 638)">I<tspan font-size="13" x="6" y="4">N_Fix</tspan></text><text font-family="Arial,Arial_MSFontService,Arial" font-weight="700" font-size="20" transform="matrix(6.12323e-17 1 -1 6.12323e-17 394.449 584)">I<tspan font-size="13" x="5" y="4">N_Cont</tspan></text><text font-family="Arial,Arial_MSFontService,Arial" font-weight="700" font-size="20" transform="translate(359.034 667)">M<tspan font-size="13" x="16.6667" y="4">22</tspan></text><path d="M427.833 580.312 427.833 576.979 431.167 576.979 431.167 580.312ZM427.833 573.646 427.833 570.312 431.167 570.312 431.167 573.646ZM427.833 566.979 427.833 563.646 431.167 563.646 431.167 566.979ZM427.833 560.312 427.833 556.979 431.167 556.979 431.167 560.312ZM427.833 553.646 427.833 550.312 431.167 550.312 431.167 553.646ZM427.833 546.979 427.833 543.646 431.167 543.646 431.167 546.979ZM427.833 540.312 427.833 536.979 431.167 536.979 431.167 540.312ZM427.833 533.646 427.833 531.125 427.84 531.276 427.767 530.467 431.086 530.165 431.167 531.049 431.167 533.646ZM427.492 527.108 427.462 526.677 427.473 526.783 427.348 525.845 427.644 526.594 427.331 526.156 428.537 526.847 427.849 526.785 428.184 526.781 427.461 526.862 427.093 523.549 427.983 523.45 429.6 523.597 430.597 524.994 430.784 526.395 430.817 526.879ZM423.831 526.9 422.246 526.787 420.488 526.64 420.765 523.318 422.513 523.464 422.494 523.463 424.069 523.575ZM417.238 526.428 413.907 526.301 414.034 522.97 417.365 523.097ZM410.601 526.224 407.963 526.166 408.017 526.167 407.322 526.174 407.288 522.841 408.01 522.833 410.675 522.892ZM403.989 526.208 401.884 526.229 400.639 526.229 400.639 522.896 401.875 522.896 401.858 522.896 403.955 522.875ZM397.306 526.229 395.625 526.229 395.66 526.229 394.007 526.263 393.938 522.931 395.608 522.896 397.306 522.896ZM390.675 526.333 389.66 526.354 387.346 526.408 387.269 523.075 389.59 523.021 390.605 523ZM383.998 526.483 380.665 526.529 380.619 523.196 383.952 523.15ZM377.395 526.662 374.066 526.829 373.899 523.5 377.228 523.333ZM370.737 526.996 367.408 527.163 367.241 523.834 370.57 523.667ZM364.079 527.33 360.75 527.497 360.583 524.168 363.912 524.001ZM361.462 528.365 361.439 531.698 358.106 531.675 358.129 528.342ZM361.417 535.009 361.438 538.342 358.105 538.364 358.083 535.031ZM361.46 541.676 361.479 544.614 361.482 545.009 358.148 545.031 358.146 544.636 358.127 541.697ZM361.503 548.342 361.525 551.676 358.192 551.697 358.17 548.364ZM361.536 555.031 361.514 558.364 358.18 558.342 358.203 555.008ZM361.491 561.697 361.479 563.465 361.436 565.063 358.104 564.974 358.146 563.393 358.146 563.426 358.158 561.675ZM361.35 568.377 361.299 571.71 357.966 571.658 358.018 568.325ZM361.242 575.046 361.229 575.779 361.178 578.382 357.845 578.317 357.896 575.721 357.909 574.988ZM361.167 581.683 361.167 584.375 361.167 584.353 361.175 584.994 357.842 585.038 357.833 584.386 357.833 581.683ZM361.219 588.327 361.229 589.103 361.229 589.08 361.298 591.636 357.966 591.726 357.896 589.158 357.886 588.371ZM361.369 594.994 361.409 598.327 358.076 598.367 358.036 595.034ZM361.473 601.645 361.479 601.923 361.469 605.018 358.136 605.008 358.146 601.932 358.146 601.972 358.141 601.714ZM364.812 603.531 359.75 613.5 354.813 603.469Z" fill="#FF0000"/><path d="M0 0 71.7176 1.30315" stroke="#FF0000" stroke-width="3.33333" stroke-miterlimit="8" stroke-dasharray="3.33333 3.33333" fill="none" fill-rule="evenodd" transform="matrix(-1 0 0 1 383.218 613.5)"/><path d="M0 0 71.7176 1.30315" stroke="#FF0000" stroke-width="3.33333" stroke-miterlimit="8" stroke-dasharray="3.33333 3.33333" fill="none" fill-rule="evenodd" transform="matrix(-1 0 0 1 381.218 344.5)"/><path d="M360.167 345.5 360.167 348.833 356.833 348.833 356.833 345.5ZM360.167 352.167 360.167 355.5 356.833 355.5 356.833 352.167ZM360.167 358.833 360.167 362.167 356.833 362.167 356.833 358.833ZM360.167 365.5 360.167 368.833 356.833 368.833 356.833 365.5ZM360.167 372.167 360.167 375.5 356.833 375.5 356.833 372.167ZM360.167 378.833 360.167 382.167 356.833 382.167 356.833 378.833ZM360.167 385.5 360.167 388.833 356.833 388.833 356.833 385.5ZM360.167 392.167 360.167 395.5 356.833 395.5 356.833 392.167ZM360.167 398.833 360.167 402.167 356.833 402.167 356.833 398.833ZM360.167 405.5 360.167 408.28 356.833 408.28 356.833 405.5ZM363.5 406.613 358.5 416.613 353.5 406.613Z" fill="#FF0000"/><path d="M8.33334-1.66662 25.5996-1.66654C26.5201-1.66653 27.2663-0.920335 27.2663 0.000139778 27.2663 0.920614 26.5201 1.6668 25.5996 1.6668L8.33332 1.66671C7.41285 1.6667 6.66666 0.920509 6.66667 3.41759e-05 6.66667-0.92044 7.41287-1.66663 8.33334-1.66662ZM9.99997 5.00005 0 0 10-4.99995Z" transform="matrix(-1 0 0 1 174.1 282.5)"/><path d="M174.5 321.107 174.5 276.5" stroke="#000000" stroke-width="3.33333" stroke-linecap="round" stroke-miterlimit="8" fill="none" fill-rule="evenodd"/><path d="M0 0 25.5996 0.000131234" stroke="#000000" stroke-width="3.33333" stroke-linecap="round" stroke-miterlimit="8" fill="none" fill-rule="evenodd" transform="matrix(-1 0 0 1 174.1 317.5)"/><path d="M185.5 314.362 185.5 282.5" stroke="#000000" stroke-width="6.66667" stroke-linecap="square" stroke-miterlimit="8" fill="none" fill-rule="evenodd"/><path d="M148.5 257.5 148.5 281.859" stroke="#000000" stroke-width="3.33333" stroke-linecap="round" stroke-linejoin="round" stroke-miterlimit="10" fill="none" fill-rule="evenodd"/><path d="M0 0 9.71824 0.000131234" stroke="#000000" stroke-width="3.33333" stroke-linecap="round" stroke-linejoin="round" stroke-miterlimit="10" fill="none" fill-rule="evenodd" transform="matrix(1 0 0 -1 186.5 298.5)"/><path d="M0 0 0.000131234 311.85" stroke="#000000" stroke-width="3.33333" stroke-linecap="round" stroke-linejoin="round" stroke-miterlimit="10" fill="none" fill-rule="evenodd" transform="matrix(-1 0 0 1 147.5 318.5)"/><path d="M0 0 25.5996 0.000131234" stroke="#000000" stroke-width="3.33333" stroke-linecap="round" stroke-miterlimit="8" fill="none" fill-rule="evenodd" transform="matrix(-1 0 0 1 173.1 646.5)"/><path d="M172.5 685.107 172.5 640.5" stroke="#000000" stroke-width="3.33333" stroke-linecap="round" stroke-miterlimit="8" fill="none" fill-rule="evenodd"/><path d="M6.90437e-06-1.66667 23.3455-1.66657C24.266-1.66657 25.0122-0.920371 25.0122 0.000103616 25.0122 0.920578 24.266 1.66677 23.3455 1.66676L-6.90437e-06 1.66667C-0.920482 1.66666-1.66667 0.920468-1.66667-6.90437e-06-1.66666-0.920482-0.920468-1.66667 6.90437e-06-1.66667ZM21.6789-4.99991 31.6789 0.000131234 21.6789 5.00009Z" transform="matrix(-1 0 0 1 173.179 679.5)"/><path d="M183.5 678.362 183.5 646.5" stroke="#000000" stroke-width="6.66667" stroke-linecap="square" stroke-miterlimit="8" fill="none" fill-rule="evenodd"/><path d="M143.5 703.432 143.5 680.5" stroke="#000000" stroke-width="3.33333" stroke-linecap="round" stroke-miterlimit="8" fill="none" fill-rule="evenodd"/><path d="M201.339 660.547 185.5 660.5" stroke="#000000" stroke-width="3.33333" stroke-linecap="round" stroke-miterlimit="8" fill="none" fill-rule="evenodd"/><path d="M0 0 0.000131234 57.3798" stroke="#000000" stroke-width="3.33333" stroke-linecap="round" stroke-miterlimit="8" fill="none" fill-rule="evenodd" transform="matrix(1 0 0 -1 201.5 660.88)"/><path d="M147.5 646.259 147.5 622.5" stroke="#000000" stroke-width="3.33333" stroke-linecap="round" stroke-miterlimit="8" fill="none" fill-rule="evenodd"/><path d="M0 0 53.2117 0.000131234" stroke="#000000" stroke-width="3.33333" stroke-linecap="round" stroke-miterlimit="8" fill="none" fill-rule="evenodd" transform="matrix(-1 0 0 1 201.712 603.5)"/><path d="M143.5 603C143.5 600.515 145.515 598.5 148 598.5 150.485 598.5 152.5 600.515 152.5 603 152.5 605.485 150.485 607.5 148 607.5 145.515 607.5 143.5 605.485 143.5 603Z" stroke="#000000" stroke-width="3.33333" stroke-miterlimit="8" fill-rule="evenodd"/><path d="M197.5 660C197.5 657.515 199.515 655.5 202 655.5 204.485 655.5 206.5 657.515 206.5 660 206.5 662.485 204.485 664.5 202 664.5 199.515 664.5 197.5 662.485 197.5 660Z" stroke="#000000" stroke-width="3.33333" stroke-miterlimit="8" fill-rule="evenodd"/><path d="M0 0 0.000131234 57.3798" stroke="#000000" stroke-width="3.33333" stroke-linecap="round" stroke-miterlimit="8" fill="none" fill-rule="evenodd" transform="matrix(1 0 0 -1 206.5 355.88)"/><path d="M0 0 53.2117 0.000131234" stroke="#000000" stroke-width="3.33333" stroke-linecap="round" stroke-miterlimit="8" fill="none" fill-rule="evenodd" transform="matrix(-1 0 0 1 203.712 355.5)"/><path d="M143.5 356C143.5 353.515 145.515 351.5 148 351.5 150.485 351.5 152.5 353.515 152.5 356 152.5 358.485 150.485 360.5 148 360.5 145.515 360.5 143.5 358.485 143.5 356Z" stroke="#000000" stroke-width="3.33333" stroke-miterlimit="8" fill-rule="evenodd"/><path d="M202.5 299C202.5 296.515 204.515 294.5 207 294.5 209.485 294.5 211.5 296.515 211.5 299 211.5 301.485 209.485 303.5 207 303.5 204.515 303.5 202.5 301.485 202.5 299Z" stroke="#000000" stroke-width="3.33333" stroke-miterlimit="8" fill-rule="evenodd"/><path d="M673.833 373.833 691.1 373.833C692.02 373.833 692.766 374.58 692.766 375.5 692.766 376.421 692.02 377.167 691.1 377.167L673.833 377.167C672.913 377.167 672.167 376.421 672.167 375.5 672.167 374.58 672.913 373.833 673.833 373.833ZM675.5 380.5 665.5 375.5 675.5 370.5Z"/><path d="M0 0 0.000131234 44.6067" stroke="#000000" stroke-width="3.33333" stroke-linecap="round" stroke-miterlimit="8" fill="none" fill-rule="evenodd" transform="matrix(1 0 0 -1 665.5 414.107)"/><path d="M665.5 407.5 691.1 407.5" stroke="#000000" stroke-width="3.33333" stroke-linecap="round" stroke-miterlimit="8" fill="none" fill-rule="evenodd"/><path d="M0 0 0.000131234 31.8619" stroke="#000000" stroke-width="6.66667" stroke-linecap="square" stroke-miterlimit="8" fill="none" fill-rule="evenodd" transform="matrix(1 0 0 -1 653.5 407.362)"/><path d="M665.5 558.5 691.1 558.5" stroke="#000000" stroke-width="3.33333" stroke-linecap="round" stroke-miterlimit="8" fill="none" fill-rule="evenodd"/><path d="M0 0 0.000131234 44.6067" stroke="#000000" stroke-width="3.33333" stroke-linecap="round" stroke-miterlimit="8" fill="none" fill-rule="evenodd" transform="matrix(1 0 0 -1 665.5 597.107)"/><path d="M665.5 588.833 688.846 588.833C689.766 588.833 690.512 589.58 690.512 590.5 690.512 591.421 689.766 592.167 688.846 592.167L665.5 592.167C664.58 592.167 663.833 591.42 663.833 590.5 663.833 589.58 664.58 588.833 665.5 588.833ZM687.179 585.5 697.179 590.5 687.179 595.5Z"/><path d="M0 0 0.000131234 31.8619" stroke="#000000" stroke-width="6.66667" stroke-linecap="square" stroke-miterlimit="8" fill="none" fill-rule="evenodd" transform="matrix(1 0 0 -1 654.5 590.362)"/><path d="M0 0 0.000131234 151.199" stroke="#000000" stroke-width="3.33333" stroke-linecap="round" stroke-miterlimit="8" fill="none" fill-rule="evenodd" transform="matrix(-1 0 0 1 691.5 407.5)"/><path d="M0 0 0.000131234 117.372" stroke="#000000" stroke-width="3.33333" stroke-linecap="round" stroke-linejoin="round" stroke-miterlimit="10" fill="none" fill-rule="evenodd" transform="matrix(-1 0 0 1 691.5 257.5)"/><path d="M0 0 27.9835 0.0469816" stroke="#000000" stroke-width="3.33333" stroke-linecap="round" stroke-miterlimit="8" fill="none" fill-rule="evenodd" transform="matrix(1 0 0 -1 626.5 572.547)"/><path d="M695.5 592.5 697.203 703.943" stroke="#000000" stroke-width="3.33333" stroke-linecap="round" stroke-miterlimit="8" fill="none" fill-rule="evenodd"/><path d="M638.5 390.5 651.677 390.5" stroke="#000000" stroke-width="3.33333" stroke-linecap="round" stroke-miterlimit="8" fill="none" fill-rule="evenodd"/><path d="M491.173 661.138C491.301 665.483 487.886 669.109 483.545 669.236 479.338 669.36 475.779 666.147 475.471 661.945" stroke="#000000" stroke-width="3.33333" stroke-linecap="round" stroke-miterlimit="8" fill="none" fill-rule="evenodd"/><path d="M626.445 661.688 491.5 661.5" stroke="#000000" stroke-width="3.33333" stroke-linecap="round" stroke-miterlimit="8" fill="none" fill-rule="evenodd"/><path d="M692.5 465.5 734.173 465.5" stroke="#000000" stroke-width="3.33333" stroke-linecap="round" stroke-miterlimit="8" fill="none" fill-rule="evenodd"/><path d="M687.5 466C687.5 463.515 689.291 461.5 691.5 461.5 693.709 461.5 695.5 463.515 695.5 466 695.5 468.485 693.709 470.5 691.5 470.5 689.291 470.5 687.5 468.485 687.5 466Z" stroke="#000000" stroke-width="3.33333" stroke-miterlimit="8" fill-rule="evenodd"/><path d="M697.447 297.502C697.575 301.847 694.16 305.473 689.819 305.6 685.612 305.724 682.053 302.51 681.745 298.309" stroke="#000000" stroke-width="3.33333" stroke-linecap="round" stroke-miterlimit="8" fill="none" fill-rule="evenodd"/><path d="M0 0 35.5507 0.000131234" stroke="#000000" stroke-width="3.33333" stroke-linecap="round" stroke-miterlimit="8" fill="none" fill-rule="evenodd" transform="matrix(1 0 0 -1 698.5 298.5)"/><path d="M425.5 446C425.5 443.515 427.515 441.5 430 441.5 432.485 441.5 434.5 443.515 434.5 446 434.5 448.485 432.485 450.5 430 450.5 427.515 450.5 425.5 448.485 425.5 446Z" stroke="#000000" stroke-width="3.33333" stroke-miterlimit="8" fill="#FFFFFF" fill-rule="evenodd"/><path d="M452.5 446C452.5 443.515 454.515 441.5 457 441.5 459.485 441.5 461.5 443.515 461.5 446 461.5 448.485 459.485 450.5 457 450.5 454.515 450.5 452.5 448.485 452.5 446Z" stroke="#000000" stroke-width="3.33333" stroke-miterlimit="8" fill="#FFFFFF" fill-rule="evenodd"/><path d="M477.5 446C477.5 443.515 479.515 441.5 482 441.5 484.485 441.5 486.5 443.515 486.5 446 486.5 448.485 484.485 450.5 482 450.5 479.515 450.5 477.5 448.485 477.5 446Z" stroke="#000000" stroke-width="3.33333" stroke-miterlimit="8" fill="#FFFFFF" fill-rule="evenodd"/><path d="M504.5 445C504.5 442.515 506.515 440.5 509 440.5 511.485 440.5 513.5 442.515 513.5 445 513.5 447.485 511.485 449.5 509 449.5 506.515 449.5 504.5 447.485 504.5 445Z" stroke="#000000" stroke-width="3.33333" stroke-miterlimit="8" fill="#FFFFFF" fill-rule="evenodd"/><text font-family="Arial,Arial_MSFontService,Arial" font-weight="700" font-size="20" transform="translate(528.516 452)">N Stages<tspan font-size="20" x="143.289" y="-56">M</tspan><tspan font-size="13" x="159.955" y="-52">P_LS</tspan><tspan font-size="20" x="147.436" y="128">M</tspan><tspan font-size="13" x="164.102" y="132">N_LS</tspan></text><path d="M0 0 0.000131234 23.7591" stroke="#000000" stroke-width="5" stroke-linecap="round" stroke-linejoin="round" stroke-miterlimit="10" fill="none" fill-rule="evenodd" transform="matrix(-1 0 0 1 467.5 230.5)"/><path d="M455.5 230.5 481.1 230.5" stroke="#000000" stroke-width="6.66667" stroke-linecap="square" stroke-miterlimit="8" fill="none" fill-rule="evenodd"/><path d="M463.5 255C463.5 252.515 465.515 250.5 468 250.5 470.485 250.5 472.5 252.515 472.5 255 472.5 257.485 470.485 259.5 468 259.5 465.515 259.5 463.5 257.485 463.5 255Z" stroke="#000000" stroke-width="3.33333" stroke-miterlimit="8" fill-rule="evenodd"/><text font-family="Arial,Arial_MSFontService,Arial" font-weight="700" font-size="20" transform="translate(117.481 303)">M<tspan font-size="13" x="16.6667" y="4">P_CB</tspan><tspan font-size="20" x="-3.91575" y="361">M</tspan><tspan font-size="13" x="12.7509" y="365">N_CB</tspan></text><path d="M544 659 560.5 642 577 659Z" stroke="#FF0000" stroke-width="1.66667" stroke-miterlimit="8" fill-rule="evenodd"/><text font-family="Arial,Arial_MSFontService,Arial" font-weight="700" font-size="20" transform="translate(526.965 628)">V<tspan font-size="13" x="13.3333" y="4">Control</tspan></text><path d="M638.5 426.5 690.298 426.5" stroke="#000000" stroke-width="3.33333" stroke-linecap="round" stroke-miterlimit="8" fill="none" fill-rule="evenodd"/><path d="M0 0 0.000131234 36" stroke="#000000" stroke-width="3.33333" stroke-linecap="round" stroke-miterlimit="8" fill="none" fill-rule="evenodd" transform="matrix(1 0 0 -1 638.5 426.5)"/><path d="M687.5 427C687.5 424.515 689.515 422.5 692 422.5 694.485 422.5 696.5 424.515 696.5 427 696.5 429.485 694.485 431.5 692 431.5 689.515 431.5 687.5 429.485 687.5 427Z" stroke="#000000" stroke-width="3.33333" stroke-miterlimit="8" fill-rule="evenodd"/><path d="M181.5 468.5C181.5 460.768 186.873 454.5 193.5 454.5 200.127 454.5 205.5 460.768 205.5 468.5 205.5 476.232 200.127 482.5 193.5 482.5 186.873 482.5 181.5 476.232 181.5 468.5Z" stroke="#000000" stroke-width="3.33333" stroke-miterlimit="8" fill="#FFFFFF" fill-rule="evenodd"/><text fill="#FF0000" font-family="Calibri,Calibri_MSFontService,Arial" font-weight="700" font-size="30" transform="translate(184.061 478)">A</text><path d="M430.5 475C430.5 466.992 436.096 460.5 443 460.5 449.904 460.5 455.5 466.992 455.5 475 455.5 483.008 449.904 489.5 443 489.5 436.096 489.5 430.5 483.008 430.5 475Z" stroke="#000000" stroke-width="3.33333" stroke-miterlimit="8" fill="#FFFFFF" fill-rule="evenodd"/><text fill="#FF0000" font-family="Calibri,Calibri_MSFontService,Arial" font-weight="700" font-size="30" transform="translate(434.153 485)">B</text><path d="M705.5 489C705.5 480.992 711.096 474.5 718 474.5 724.904 474.5 730.5 480.992 730.5 489 730.5 497.008 724.904 503.5 718 503.5 711.096 503.5 705.5 497.008 705.5 489Z" stroke="#000000" stroke-width="3.33333" stroke-miterlimit="8" fill="#FFFFFF" fill-rule="evenodd"/><text fill="#FF0000" font-family="Calibri,Calibri_MSFontService,Arial" font-weight="700" font-size="30" transform="translate(709.778 499)">C</text></g></svg>